PathFileType	4	(X/Y/Z)	31_1_42_p0_0-277_filt_butterworth.trc
DataRate	CameraRate	NumFrames	NumMarkers	Units	OrigDataRate	OrigDataStartFrame	OrigNumFrames
47.0	47.0	5	27	m	47.0	34	277
Frame#	Time	RHip			RKnee			RAnkle			RBigToe			RSmallToe			RHeel			LHip			LKnee			LAnkle			LBigToe			LSmallToe			LHeel			Neck			Head			Nose			RShoulder			RElbow			RWrist			RThumb			RIndex			RPinky			LShoulder			LElbow			LWrist			LThumb			LIndex			LPinky			
		X1	Y1	Z1	X2	Y2	Z2	X3	Y3	Z3	X4	Y4	Z4	X5	Y5	Z5	X6	Y6	Z6	X7	Y7	Z7	X8	Y8	Z8	X9	Y9	Z9	X10	Y10	Z10	X11	Y11	Z11	X12	Y12	Z12	X13	Y13	Z13	X14	Y14	Z14	X15	Y15	Z15	X16	Y16	Z16	X17	Y17	Z17	X18	Y18	Z18	X19	Y19	Z19	X20	Y20	Z20	X21	Y21	Z21	X22	Y22	Z22	X23	Y23	Z23	X24	Y24	Z24	X25	Y25	Z25	X26	Y26	Z26	X27	Y27	Z27	
34	0.723404255319149	0.19653704118575266	0.6411215046778262	0.18885626385882304	0.15563169676633348	0.6517292361376875	0.5615987929730181	0.09732897089448453	1.0506924117186844	0.9314315684731471	0.06267250042076272	0.7678831605163282	0.9969614516910392	0.12112086550771888	0.825261456861135	1.003493954300353	0.09193407969823565	1.1587734888506929	0.9676478039094596	-0.017865948882505794	0.661139795253028	0.16983175174796428	-0.08454753014825167	0.7386817935851351	0.5404379504538164	-0.08268329844065464	1.025469959084347	0.9010981969992041	-0.08149425441586511	0.8100990214044255	0.9791164892841246	-0.12946079331947727	0.8724307501703175	0.9722871926115753	-0.057246958652894454	1.1383492143185212	0.9487629792801238	0.07132430947820348	0.2925644085757981	-0.08014467782685271	0.020130935637973836	-0.17476484482933724	-0.15105876169361962	0.007841412132839627	0.017146754402480896	-0.028817265833966647	0.22623373744964453	0.20786911732788388	-0.07216383795471187	0.3329911256273529	0.46483238389814985	0.1377123932439826	0.11896366913694165	0.3634252331098703	0.29049503221818673	-0.020350005201994065	0.34871384936150934	0.27491212289357686	-0.03539350876741528	0.3744131759972918	0.3374906018299555	0.02372155738628083	0.4308965323942315	0.4158914027888516	-0.07382243390640723	0.31750268278360194	-0.11533360107357697	-0.11917460488116528	0.5460825287118247	0.057399820825157905	-0.04224724338529014	0.4639545666833392	0.2878118311679901	0.024798576160612484	0.4126146598257	0.3276992673725237	0.023834476222296	0.44179531994648463	0.3785572895972814	0.030677277596513505	0.5269318149987577	0.41336535152800297
35	0.7446808510638298	0.1951659727647735	0.653483481897126	0.20405864335022947	0.15812385873933096	0.632794876572434	0.5665315613842538	0.0952192160354897	1.0487732957311868	0.9302760122972784	0.06180481125407968	0.773571547200558	0.9970113873857187	0.11808723921723517	0.8278652070329355	1.00344298131181	0.09165525295999012	1.1536827322624097	0.9667671847122363	-0.018891766438047013	0.6713095970874512	0.18513670241679853	-0.08811603883018487	0.7343489313103181	0.5384325954442208	-0.08266220530808534	1.025449950856878	0.9020964579043035	-0.08167468272616034	0.8088733640833128	0.9777354412581186	-0.12939919863163118	0.872086362351564	0.9723592081908616	-0.05492438906000491	1.141763820867618	0.950396319928519	0.07119609454287573	0.30220724554780826	-0.05813404902485994	0.016335999572768736	-0.17237149863960455	-0.12467065836143813	0.007598032998906902	0.027998171646171126	-0.004468742346768253	0.22745189482247732	0.2176080211662548	-0.05795133502594105	0.3323982081525496	0.4717672225229162	0.16150921596267226	0.11989021666213706	0.3600738673546743	0.31346114406569847	-0.01647417518142599	0.3340856017573941	0.30915452642651486	-0.03050319948077586	0.3292271965173757	0.3640214677852768	0.03922426199152571	0.42284961504383645	0.4373953841146844	-0.07380753025581042	0.31957850929729714	-0.09858143092234745	-0.12438242502095676	0.5635650293203807	0.0702883656467488	-0.04523054235775365	0.4631137883106688	0.29811969562475876	0.010104493427423228	0.3939423266212915	0.3455122905034305	0.0069770874025143525	0.41717926186878823	0.3970399950369935	0.014175622585516145	0.5432855635895547	0.4216741650350344
36	0.7659574468085106	0.1936973137453017	0.6641627414839055	0.2118299141389358	0.15688238970618756	0.6216511611040856	0.5769519979141343	0.09417161370102427	1.0508569381730402	0.9312771045650342	0.060316888266109786	0.7823974120503079	0.9985597523618166	0.11610756711820379	0.8312723921520835	1.003510955928392	0.09127395147998803	1.152043624882404	0.9666380202705939	-0.02274220540230832	0.6771812296321754	0.19459023735633085	-0.0914722202461965	0.7327230432661915	0.5378855638499864	-0.08271447016838301	1.0254756075440805	0.9021642249664055	-0.08170791277584391	0.8088378471327051	0.9778690082033697	-0.1291016982765305	0.8714996307873355	0.9724459216271932	-0.051720336345857466	1.1462311769710776	0.9529616353842003	0.07147496671269946	0.3125848283036858	-0.034664897820119535	0.014171606940718378	-0.17269261099976624	-0.09474049160311399	0.007369146163468781	0.03699895089639914	0.021938926312495412	0.2290231231454261	0.22986438146280644	-0.04017051709134052	0.3301084891945523	0.47707850887738507	0.18413022377767496	0.12402533038591051	0.34869212487551904	0.3382594574260614	-0.006691614728667073	0.31293837883682385	0.340318852240597	-0.019560081784395392	0.27829391129124087	0.38597141985877426	0.05400265886369983	0.37159466738989055	0.4496382844273347	-0.07378263860299455	0.3215873259171072	-0.08121136349083119	-0.12923733617095826	0.5782290082326439	0.08310452319734954	-0.045528474552601894	0.47639828485775826	0.31351820558648	0.00244788861299307	0.3890980080073826	0.3679404824243069	-0.0030903887041128847	0.4144792601700737	0.4169759406372126	7.494078548203652e-05	0.5660370714553096	0.43795702753470284
37	0.7872340425531915	0.1916457507736763	0.6704877996338611	0.21215874723789352	0.15188493923051438	0.6192684780856188	0.586199596014399	0.09307748460294665	1.0569639388320484	0.9353657002281258	0.05905738877952691	0.7897863461211696	1.0017625521657003	0.11580810759686537	0.8336047510989385	1.0036229789128503	0.09149358192731087	1.1536111401164635	0.9675905158168046	-0.02808377191745729	0.6784322150711944	0.19393085765019352	-0.09375553024410505	0.7331210443915127	0.53846200571608	-0.08272920718556168	1.025871711495683	0.9025130932627407	-0.08152691288115362	0.8100339528245721	0.9795965678805447	-0.129568057998897	0.8723206205202505	0.972705035898596	-0.04949832603836522	1.1510479806736167	0.9559989737306371	0.07327412804383877	0.32244042584175153	-0.013660879504719704	0.013921909608345264	-0.17345791920449716	-0.06461020927626686	0.006743797358370593	0.04226245542263577	0.0457313342867184	0.22722278350142475	0.23629032349096127	-0.018771466786051093	0.324294345489206	0.4688241233261099	0.20248826651032084	0.13219198244638802	0.329993879527659	0.3612292799349228	0.010026927571698853	0.2802210935198811	0.3686599828703814	0.0004827183208670682	0.225643601526937	0.4105736794222786	0.06641468557050567	0.2984357189688117	0.46033494454787216	-0.07409556095150525	0.3238937602315556	-0.06609019860651176	-0.13348555215973573	0.5868070542860487	0.09119378041747225	-0.04675769394536277	0.4957708107801751	0.3307993010589113	0.001695076139393259	0.3900017506787362	0.3875959435475287	-0.004739972748678377	0.41805744921440047	0.4327598722790414	-0.01500460128701854	0.5714516428535572	0.456063200659361
38	0.8085106382978723	0.18916160486705078	0.6765091166327113	0.2110130243608797	0.14663336600095947	0.6204933160184113	0.5895156141592398	0.09278067230355758	1.0635909567891986	0.9409151829879561	0.05851503493377831	0.7936174484954166	1.0055311287414384	0.11611785084710283	0.8342416023280568	1.0037250539443208	0.09300727859823414	1.1590494812579555	0.9688059030951705	-0.03197225779177414	0.6771653174065899	0.1882141318637914	-0.09451677527088587	0.7336974288109823	0.5388365619789532	-0.0825429488942757	1.027100584103829	0.9041948853934867	-0.08125507703925852	0.8119641819884486	0.9818084489119392	-0.1322173394242317	0.8768832256461945	0.9733198557853502	-0.04871219224754232	1.1541860737149523	0.9582130358983303	0.07582959065218278	0.33118822490047617	0.003345555867032262	0.014167662565887926	-0.17303201110011063	-0.036112475022248736	0.006142511639416457	0.047096817539905515	0.06694434020456415	0.2222404728726185	0.23619988881906118	0.003998551268577443	0.31510938561741464	0.44847330777333383	0.22040083899869561	0.14131870828285295	0.3165074492925384	0.3820209111250594	0.028565311992775757	0.2503290097213948	0.39699067169585905	0.024545966683569693	0.18669758457756863	0.436849715832319	0.0797934552903811	0.24103562820214636	0.47632425369536513	-0.07344537324598716	0.32783209682603864	-0.05419202872393705	-0.1369021690464466	0.5925094054134831	0.09635523440817151	-0.05037910793047462	0.5088355687784651	0.34490501979037536	0.0014195256209911364	0.39443697170443803	0.4042809749057009	-0.003997074735677899	0.4111670682003693	0.4443270246431847	-0.03452367474832429	0.556863243955888	0.46634055326015006
